<svg width="148" height="148" viewBox="0 0 148 148" fill="none" xmlns="http://www.w3.org/2000/svg">
<path d="M74 4L78.7782 13.2877L84.9504 4.86182L88.2168 14.7827L95.6312 7.42604L97.3054 17.7357L105.779 11.6295L105.82 22.0742L115.145 17.3688L113.551 27.6913L123.497 24.5025L120.309 34.4486L130.631 32.855L125.926 42.1798L136.37 42.2207L130.264 50.6946L140.574 52.3688L133.217 59.7832L143.138 63.0496L134.712 69.2218L144 74L134.712 78.7782L143.138 84.9504L133.217 88.2168L140.574 95.6312L130.264 97.3054L136.37 105.779L125.926 105.82L130.631 115.145L120.309 113.551L123.497 123.497L113.551 120.309L115.145 130.631L105.82 125.926L105.779 136.37L97.3054 130.264L95.6312 140.574L88.2168 133.217L84.9504 143.138L78.7782 134.712L74 144L69.2218 134.712L63.0496 143.138L59.7832 133.217L52.3688 140.574L50.6946 130.264L42.2207 136.37L42.1798 125.926L32.855 130.631L34.4486 120.309L24.5025 123.497L27.6913 113.551L17.3688 115.145L22.0742 105.82L11.6295 105.779L17.7357 97.3054L7.42604 95.6312L14.7827 88.2168L4.86182 84.9504L13.2877 78.7782L4 74L13.2877 69.2218L4.86182 63.0496L14.7827 59.7832L7.42604 52.3688L17.7357 50.6946L11.6295 42.2207L22.0742 42.1798L17.3688 32.855L27.6913 34.4486L24.5025 24.5025L34.4486 27.6913L32.855 17.3688L42.1798 22.0742L42.2207 11.6295L50.6946 17.7357L52.3688 7.42604L59.7832 14.7827L63.0496 4.86182L69.2218 13.2877L74 4Z" fill="#F7C14D"/>
<g filter="url(#filter0_f_258_854)">
<path d="M74 4L78.7782 13.2877L84.9504 4.86182L88.2168 14.7827L95.6312 7.42604L97.3054 17.7357L105.779 11.6295L105.82 22.0742L115.145 17.3688L113.551 27.6913L123.497 24.5025L120.309 34.4486L130.631 32.855L125.926 42.1798L136.37 42.2207L130.264 50.6946L140.574 52.3688L133.217 59.7832L143.138 63.0496L134.712 69.2218L144 74L134.712 78.7782L143.138 84.9504L133.217 88.2168L140.574 95.6312L130.264 97.3054L136.37 105.779L125.926 105.82L130.631 115.145L120.309 113.551L123.497 123.497L113.551 120.309L115.145 130.631L105.82 125.926L105.779 136.37L97.3054 130.264L95.6312 140.574L88.2168 133.217L84.9504 143.138L78.7782 134.712L74 144L69.2218 134.712L63.0496 143.138L59.7832 133.217L52.3688 140.574L50.6946 130.264L42.2207 136.37L42.1798 125.926L32.855 130.631L34.4486 120.309L24.5025 123.497L27.6913 113.551L17.3688 115.145L22.0742 105.82L11.6295 105.779L17.7357 97.3054L7.42604 95.6312L14.7827 88.2168L4.86182 84.9504L13.2877 78.7782L4 74L13.2877 69.2218L4.86182 63.0496L14.7827 59.7832L7.42604 52.3688L17.7357 50.6946L11.6295 42.2207L22.0742 42.1798L17.3688 32.855L27.6913 34.4486L24.5025 24.5025L34.4486 27.6913L32.855 17.3688L42.1798 22.0742L42.2207 11.6295L50.6946 17.7357L52.3688 7.42604L59.7832 14.7827L63.0496 4.86182L69.2218 13.2877L74 4Z" fill="#F7C14D"/>
</g>
<defs>
<filter id="filter0_f_258_854" x="0" y="0" width="148" height="148" filterUnits="userSpaceOnUse" color-interpolation-filters="sRGB">
<feFlood flood-opacity="0" result="BackgroundImageFix"/>
<feBlend mode="normal" in="SourceGraphic" in2="BackgroundImageFix" result="shape"/>
<feGaussianBlur stdDeviation="2" result="effect1_foregroundBlur_258_854"/>
</filter>
</defs>
</svg>
