<svg width="173" height="52" viewBox="0 0 173 52" fill="none" xmlns="http://www.w3.org/2000/svg">
<path d="M57.9845 18.104C59.2965 18.104 60.4085 18.248 61.3205 18.536C62.2325 18.808 62.9685 19.272 63.5285 19.928C64.0885 20.568 64.4885 21.448 64.7285 22.568C64.9845 23.672 65.1125 25.056 65.1125 26.72C65.1125 28.384 64.9845 29.776 64.7285 30.896C64.4885 32 64.0885 32.88 63.5285 33.536C62.9685 34.176 62.2325 34.64 61.3205 34.928C60.4085 35.2 59.2965 35.336 57.9845 35.336C56.6725 35.336 55.5605 35.2 54.6485 34.928C53.7365 34.64 53.0005 34.176 52.4405 33.536C51.8805 32.88 51.4725 32 51.2165 30.896C50.9765 29.776 50.8565 28.384 50.8565 26.72C50.8565 25.056 50.9765 23.672 51.2165 22.568C51.4725 21.448 51.8805 20.568 52.4405 19.928C53.0005 19.272 53.7365 18.808 54.6485 18.536C55.5605 18.248 56.6725 18.104 57.9845 18.104ZM56.7845 35.816C57.8565 36.248 58.9765 36.592 60.1445 36.848C61.3125 37.12 62.5685 37.352 63.9125 37.544L62.9525 40.712C61.5125 40.36 60.2085 39.92 59.0405 39.392C57.8725 38.864 56.8325 38.304 55.9205 37.712L56.7845 35.816ZM57.9845 21.008C57.1525 21.008 56.4965 21.176 56.0165 21.512C55.5365 21.848 55.2005 22.432 55.0085 23.264C54.8165 24.08 54.7205 25.232 54.7205 26.72C54.7205 28.192 54.8165 29.344 55.0085 30.176C55.2005 31.008 55.5365 31.592 56.0165 31.928C56.4965 32.264 57.1525 32.432 57.9845 32.432C58.8165 32.432 59.4645 32.264 59.9285 31.928C60.4085 31.592 60.7445 31.008 60.9365 30.176C61.1445 29.344 61.2485 28.192 61.2485 26.72C61.2485 25.232 61.1445 24.08 60.9365 23.264C60.7445 22.432 60.4085 21.848 59.9285 21.512C59.4645 21.176 58.8165 21.008 57.9845 21.008ZM81.156 18.44V28.4C81.156 30.08 80.948 31.432 80.532 32.456C80.116 33.464 79.428 34.2 78.468 34.664C77.524 35.112 76.26 35.336 74.676 35.336C72.996 35.336 71.652 35.112 70.644 34.664C69.636 34.2 68.908 33.464 68.46 32.456C68.012 31.432 67.788 30.08 67.788 28.4V18.44H71.46V28.4C71.46 29.44 71.548 30.256 71.724 30.848C71.916 31.424 72.236 31.832 72.684 32.072C73.132 32.312 73.732 32.432 74.484 32.432C75.236 32.432 75.828 32.312 76.26 32.072C76.708 31.832 77.02 31.424 77.196 30.848C77.388 30.256 77.484 29.44 77.484 28.4V18.44H81.156ZM88.0331 18.44V35H84.3851V18.44H88.0331ZM98.6409 21.152L102.673 21.176L94.6809 32.288L90.6249 32.264L98.6409 21.152ZM102.865 32.264V35H90.6249V32.264H102.865ZM102.673 18.44V21.176H90.8169V18.44H102.673ZM112.703 21.152L116.735 21.176L108.743 32.288L104.687 32.264L112.703 21.152ZM116.927 32.264V35H104.687V32.264H116.927ZM116.735 18.44V21.176H104.879V18.44H116.735ZM125.998 18.2C127.31 18.2 128.414 18.344 129.31 18.632C130.222 18.904 130.95 19.36 131.494 20C132.054 20.64 132.462 21.512 132.718 22.616C132.974 23.704 133.102 25.072 133.102 26.72C133.102 28.368 132.974 29.744 132.718 30.848C132.462 31.936 132.054 32.8 131.494 33.44C130.95 34.08 130.222 34.544 129.31 34.832C128.414 35.104 127.31 35.24 125.998 35.24C124.734 35.24 123.574 35.216 122.518 35.168C121.462 35.12 120.454 35.064 119.494 35L121.03 32.288C121.638 32.32 122.358 32.352 123.19 32.384C124.038 32.4 124.974 32.408 125.998 32.408C126.814 32.408 127.454 32.248 127.918 31.928C128.398 31.592 128.734 31.008 128.926 30.176C129.134 29.344 129.238 28.192 129.238 26.72C129.238 25.248 129.134 24.096 128.926 23.264C128.734 22.432 128.398 21.848 127.918 21.512C127.454 21.176 126.814 21.008 125.998 21.008C125.022 21.008 124.15 21.016 123.382 21.032C122.614 21.032 121.862 21.032 121.126 21.032L119.494 18.44C120.454 18.376 121.454 18.32 122.494 18.272C123.55 18.224 124.718 18.2 125.998 18.2ZM123.166 18.44V35H119.494V18.44H123.166ZM142.477 18.104C143.789 18.104 144.901 18.248 145.813 18.536C146.725 18.808 147.453 19.272 147.997 19.928C148.557 20.568 148.965 21.448 149.221 22.568C149.477 23.672 149.605 25.056 149.605 26.72C149.605 28.384 149.477 29.776 149.221 30.896C148.965 32 148.557 32.88 147.997 33.536C147.453 34.176 146.725 34.64 145.813 34.928C144.901 35.2 143.789 35.336 142.477 35.336C141.165 35.336 140.053 35.2 139.141 34.928C138.229 34.64 137.493 34.176 136.933 33.536C136.373 32.88 135.965 32 135.709 30.896C135.453 29.776 135.325 28.384 135.325 26.72C135.325 25.056 135.453 23.672 135.709 22.568C135.965 21.448 136.373 20.568 136.933 19.928C137.493 19.272 138.229 18.808 139.141 18.536C140.053 18.248 141.165 18.104 142.477 18.104ZM142.477 21.008C141.629 21.008 140.965 21.176 140.485 21.512C140.021 21.848 139.685 22.432 139.477 23.264C139.285 24.08 139.189 25.232 139.189 26.72C139.189 28.192 139.285 29.344 139.477 30.176C139.685 31.008 140.021 31.592 140.485 31.928C140.965 32.264 141.629 32.432 142.477 32.432C143.309 32.432 143.957 32.264 144.421 31.928C144.901 31.592 145.237 31.008 145.429 30.176C145.637 29.344 145.741 28.192 145.741 26.72C145.741 25.232 145.637 24.08 145.429 23.264C145.237 22.432 144.901 21.848 144.421 21.512C143.957 21.176 143.309 21.008 142.477 21.008ZM169.368 18.44C170.232 18.44 170.68 18.888 170.712 19.784L171.336 35H167.952L167.4 21.272H166.968L164.304 31.592C164.16 32.36 163.68 32.744 162.864 32.744H160.56C159.744 32.744 159.248 32.36 159.072 31.592L156.408 21.272H156L155.496 35H152.088L152.712 19.784C152.744 18.888 153.2 18.44 154.08 18.44H157.512C158.296 18.44 158.776 18.832 158.952 19.616L161.088 27.944C161.184 28.328 161.264 28.72 161.328 29.12C161.392 29.504 161.464 29.896 161.544 30.296H161.856C161.936 29.896 162.008 29.504 162.072 29.12C162.152 28.72 162.232 28.32 162.312 27.92L164.424 19.616C164.584 18.832 165.064 18.44 165.864 18.44H169.368Z" fill="white"/>
<path d="M26.2295 47.4117C24.9919 48.1262 23.4671 48.1262 22.2295 47.4117L6.74392 38.4711C5.50631 37.7566 4.74392 36.4361 4.74392 35.007L4.74392 17.1258C4.74392 15.6967 5.50632 14.3762 6.74392 13.6617L22.2295 4.72111C23.4671 4.00657 24.9919 4.00657 26.2295 4.72111L41.7151 13.6617C42.9527 14.3762 43.7151 15.6967 43.7151 17.1258L43.7151 35.007C43.7151 36.4361 42.9527 37.7566 41.7151 38.4711L26.2295 47.4117Z" fill="white"/>
<g filter="url(#filter0_f_116_459)">
<path d="M26.2295 47.4117C24.9919 48.1262 23.4671 48.1262 22.2295 47.4117L6.74392 38.4711C5.50631 37.7566 4.74392 36.4361 4.74392 35.007L4.74392 17.1258C4.74392 15.6967 5.50632 14.3762 6.74392 13.6617L22.2295 4.72111C23.4671 4.00657 24.9919 4.00657 26.2295 4.72111L41.7151 13.6617C42.9527 14.3762 43.7151 15.6967 43.7151 17.1258L43.7151 35.007C43.7151 36.4361 42.9527 37.7566 41.7151 38.4711L26.2295 47.4117Z" fill="white"/>
</g>
<path d="M40.6565 17.1538C41.2793 17.5461 41.2793 18.4539 40.6566 18.8462L27.0329 27.4268C26.367 27.8462 25.5 27.3676 25.5 26.5807L25.5 9.41935C25.5 8.63236 26.367 8.15378 27.0329 8.5732L40.6565 17.1538Z" fill="#F7C14D"/>
<path d="M21.6702 9.00259C22.3369 8.61769 23.1702 9.09882 23.1702 9.86862L23.1702 24.1981C23.1702 24.9679 22.3369 25.449 21.6702 25.0641L9.26053 17.8994C8.59386 17.5145 8.59387 16.5522 9.26053 16.1673L21.6702 9.00259Z" fill="#CF614C"/>
<path d="M8.15582 21.4408C8.15582 20.671 8.98915 20.1898 9.65582 20.5747L20.7821 26.9985C21.4488 27.3834 21.4488 28.3457 20.7821 28.7306L9.65581 35.1543C8.98915 35.5392 8.15582 35.0581 8.15582 34.2883L8.15582 21.4408Z" fill="#188D8D"/>
<defs>
<filter id="filter0_f_116_459" x="0.744141" y="0.185303" width="46.9707" height="51.7622" filterUnits="userSpaceOnUse" color-interpolation-filters="sRGB">
<feFlood flood-opacity="0" result="BackgroundImageFix"/>
<feBlend mode="normal" in="SourceGraphic" in2="BackgroundImageFix" result="shape"/>
<feGaussianBlur stdDeviation="2" result="effect1_foregroundBlur_116_459"/>
</filter>
</defs>
</svg>
