<svg width="20" height="20" viewBox="0 0 20 20" fill="none" xmlns="http://www.w3.org/2000/svg">
<path d="M5.72753 14.274C4.19003 13.1823 2.97336 11.7623 2.28586 10.8657C2.09361 10.6182 1.98926 10.3137 1.98926 10.0003C1.98926 9.68684 2.09361 9.38236 2.28586 9.13484C3.53003 7.51067 6.51503 4.1665 10 4.1665C11.5634 4.1665 13.025 4.839 14.275 5.72817" stroke="white" stroke-linecap="round" stroke-linejoin="round"/>
<path d="M8.33301 15.5866C8.87401 15.7476 9.43522 15.8307 9.99967 15.8333C13.4847 15.8333 16.4697 12.4891 17.7138 10.8649C17.906 10.6172 18.0103 10.3125 18.0101 9.99894C18.01 9.68539 17.9054 9.38081 17.713 9.13325C17.2758 8.56283 16.8067 8.01752 16.308 7.49992M11.7747 8.23908C11.5433 8.00381 11.2675 7.81668 10.9634 7.68849C10.6593 7.5603 10.3329 7.49359 10.0028 7.49221C9.67282 7.49083 9.3458 7.5548 9.04063 7.68043C8.73546 7.80607 8.45819 7.99088 8.22481 8.22421C7.99142 8.45754 7.80654 8.73477 7.68084 9.03991C7.55513 9.34505 7.49108 9.67206 7.49238 10.0021C7.49369 10.3321 7.56032 10.6586 7.68844 10.9627C7.81655 11.2668 8.00362 11.5426 8.23884 11.7741L11.7747 8.23908ZM3.33301 16.6666L16.6663 3.33325L3.33301 16.6666Z" stroke="white" stroke-linecap="round" stroke-linejoin="round"/>
</svg>
