<svg width="32" height="32" viewBox="0 0 32 32" fill="none" xmlns="http://www.w3.org/2000/svg">
<path d="M16 28C22.6274 28 28 22.6274 28 16C28 9.37258 22.6274 4 16 4C9.37258 4 4 9.37258 4 16C4 22.6274 9.37258 28 16 28Z" stroke="white" stroke-width="2" stroke-linecap="round" stroke-linejoin="round"/>
<path d="M16 17.3333C18.2091 17.3333 20 15.5424 20 13.3333C20 11.1241 18.2091 9.33325 16 9.33325C13.7909 9.33325 12 11.1241 12 13.3333C12 15.5424 13.7909 17.3333 16 17.3333Z" stroke="white" stroke-width="2" stroke-linecap="round" stroke-linejoin="round"/>
<path d="M8.22363 25.1319C8.55364 24.0336 9.22892 23.0708 10.1493 22.3866C11.0697 21.7023 12.1861 21.3329 13.333 21.3333H18.6663C19.8146 21.3329 20.9324 21.7031 21.8535 22.389C22.7745 23.0748 23.4496 24.0396 23.7783 25.1399" stroke="white" stroke-width="2" stroke-linecap="round" stroke-linejoin="round"/>
</svg>
